HIERARCHY
ROOT Hips
{
 OFFSET 0.000000 0.000000 0.000000
 CHANNELS 6 Xposition Yposition Zposition Yrotation Xrotation Zrotation
 JOINT Chest
 {
  OFFSET 0.000000 9.585900 0.002600
  CHANNELS 3 Yrotation Xrotation Zrotation
  JOINT Chest2
  {
   OFFSET 0.000000 9.601200 -0.005300
   CHANNELS 3 Yrotation Xrotation Zrotation
   JOINT Chest3
   {
    OFFSET 0.000000 9.561800 0.000000
    CHANNELS 3 Yrotation Xrotation Zrotation
    JOINT Chest4
    {
     OFFSET 0.000000 9.552100 0.000000
     CHANNELS 3 Yrotation Xrotation Zrotation
     JOINT Neck
     {
      OFFSET 0.000000 14.453000 0.000000
      CHANNELS 3 Yrotation Xrotation Zrotation
      JOINT Head
      {
       OFFSET 0.000000 8.936500 -0.011300
       CHANNELS 3 Yrotation Xrotation Zrotation
       End Site
       {
        OFFSET 0.000000 17.073600 -0.006000
       }
      }
     }
     JOINT RightCollar
     {
      OFFSET -2.921100 9.558500 0.000000
      CHANNELS 3 Yrotation Xrotation Zrotation
      JOINT RightShoulder
      {
       OFFSET -13.519700 0.000000 0.000000
       CHANNELS 3 Yrotation Xrotation Zrotation
       JOINT RightElbow
       {
        OFFSET 0.000000 -29.696600 0.000000
        CHANNELS 3 Yrotation Xrotation Zrotation
        JOINT RightWrist
        {
         OFFSET 0.000000 -24.004700 0.000000
         CHANNELS 3 Yrotation Xrotation Zrotation
         End Site
         {
          OFFSET 0.000000 -17.728500 0.000000
         }
        }
       }
      }
     }
     JOINT LeftCollar
     {
      OFFSET 2.921100 9.558500 0.000000
      CHANNELS 3 Yrotation Xrotation Zrotation
      JOINT LeftShoulder
      {
       OFFSET 13.519700 0.000000 0.000000
       CHANNELS 3 Yrotation Xrotation Zrotation
       JOINT LeftElbow
       {
        OFFSET 0.000000 -29.696600 0.000000
        CHANNELS 3 Yrotation Xrotation Zrotation
        JOINT LeftWrist
        {
         OFFSET 0.000000 -24.004700 0.000000
         CHANNELS 3 Yrotation Xrotation Zrotation
         End Site
         {
          OFFSET 0.000000 -17.728500 0.000000
         }
        }
       }
      }
     }
    }
   }
  }
 }
 JOINT RightHip
 {
  OFFSET -7.771700 -0.012900 -0.001300
  CHANNELS 3 Yrotation Xrotation Zrotation
  JOINT RightKnee
  {
   OFFSET 0.000000 -40.869800 0.001200
   CHANNELS 3 Yrotation Xrotation Zrotation
   JOINT RightAnkle
   {
    OFFSET 0.000000 -39.717900 0.002100
    CHANNELS 3 Yrotation Xrotation Zrotation
    JOINT RightToe
    {
     OFFSET 0.000000 -4.965400 11.033500
     CHANNELS 3 Yrotation Xrotation Zrotation
     End Site
     {
      OFFSET 0.000000 -1.423100 5.872300
     }
    }
   }
  }
 }
 JOINT LeftHip
 {
  OFFSET 7.771700 -0.012900 -0.001300
  CHANNELS 3 Yrotation Xrotation Zrotation
  JOINT LeftKnee
  {
   OFFSET 0.000000 -40.869800 0.001200
   CHANNELS 3 Yrotation Xrotation Zrotation
   JOINT LeftAnkle
   {
    OFFSET 0.000000 -39.717900 0.002100
    CHANNELS 3 Yrotation Xrotation Zrotation
    JOINT LeftToe
    {
     OFFSET 0.000000 -4.965400 11.033500
     CHANNELS 3 Yrotation Xrotation Zrotation
     End Site
     {
      OFFSET 0.000000 -1.423100 5.872300
     }
    }
   }
  }
 }
}
MOTION
Frames: 16
Frame Time: 0.008333
-18.301283 52.873972 9.297154 -177.751998 -17.435302 -2.228691 0.492627 16.322041 0.560477 0.041448 1.626381 0.053101 0.074201 2.732603 0.096495 0.443241 14.445635 0.545991 -0.201584 16.299605 0.055715 -0.220052 -8.589389 0.111675 -0.338329 -1.536803 2.736897 -0.783788 -7.850882 -5.215028 -69.755029 -73.797139 101.058513 -6.016988 -3.139048 -2.968775 -5.664242 -2.059094 0.437432 3.998951 -5.150559 9.672416 66.027971 -61.389790 -104.139391 2.335099 -4.012150 7.420222 1.910809 -60.996550 10.940713 -174.230017 86.038392 -175.562482 -13.785004 -22.170218 12.652648 -0.003945 -0.034353 0.000533 3.264781 -59.935808 -3.110824 120.605369 77.644224 118.757635 -6.028552 -18.954649 -1.708645 0.026052 0.070085 0.016168
-18.303656 52.873698 9.296573 -177.755531 -17.437788 -2.220240 0.494312 16.325510 0.553700 0.042889 1.630612 0.055539 0.071913 2.732958 0.094833 0.444866 14.444678 0.546502 -0.201203 16.334036 0.063222 -0.222704 -8.598404 0.109135 -0.332503 -1.520226 2.735234 -0.788537 -7.866213 -5.213196 -69.783417 -73.798429 101.078079 -6.010587 -3.120077 -2.960211 -5.663628 -2.052393 0.441892 3.997597 -5.159248 9.666445 65.990436 -61.386128 -104.103424 2.341741 -4.025760 7.411096 1.928774 -60.998019 10.940594 -173.964656 86.037908 -175.281255 -13.708133 -22.170606 12.619923 -0.007936 -0.038072 -0.004746 3.279476 -59.930805 -3.124975 120.605579 77.645540 118.755540 -6.026663 -18.957128 -1.707777 0.024543 0.071765 0.015526
-18.303988 52.873533 9.295532 -177.755077 -17.440986 -2.225810 0.496351 16.330502 0.560673 0.040524 1.634151 0.055152 0.071120 2.732124 0.094071 0.447468 14.444420 0.548803 -0.203315 16.344544 0.063813 -0.221077 -8.583112 0.110076 -0.336726 -1.515068 2.735584 -0.781062 -7.869209 -5.213086 -69.807433 -73.801928 101.094255 -6.005034 -3.108893 -2.949447 -5.664532 -2.048351 0.446666 3.997954 -5.160196 9.661636 65.996625 -61.389331 -104.108638 2.348030 -4.030321 7.407182 1.924187 -60.992109 10.918596 -174.328604 86.035121 -175.677104 -13.255863 -22.206703 12.532573 0.002742 -0.059644 -0.022628 3.268004 -59.925197 -3.111646 120.602983 77.648532 118.752602 -6.024650 -18.961401 -1.709892 0.023448 0.076174 0.014901
-18.303570 52.873169 9.294915 -177.757588 -17.439992 -2.234946 0.498901 16.335850 0.570470 0.040914 1.630152 0.054132 0.073470 2.734085 0.096304 0.439664 14.450616 0.548067 -0.195838 16.351723 0.064446 -0.221256 -8.585943 0.108604 -0.331734 -1.519244 2.734335 -0.774550 -7.868719 -5.211005 -69.830737 -73.804577 101.111427 -5.998924 -3.103646 -2.941112 -5.657975 -2.056438 0.447560 3.985409 -5.152102 9.663379 66.025262 -61.391203 -104.124592 2.346674 -4.030787 7.405718 1.926011 -60.990871 10.884873 -174.926481 86.032620 -176.314679 -12.719587 -22.249460 12.432637 0.018236 -0.080153 -0.038949 3.251835 -59.924611 -3.088577 120.601962 77.650904 118.750095 -6.025879 -18.966148 -1.708427 0.022134 0.080885 0.012877
-18.304365 52.872923 9.293645 -177.762784 -17.442052 -2.235778 0.504864 16.340124 0.574719 0.042904 1.630401 0.054616 0.073040 2.735829 0.096980 0.438109 14.450997 0.549051 -0.195057 16.367704 0.064655 -0.223165 -8.591781 0.107267 -0.332471 -1.522003 2.730984 -0.772613 -7.868301 -5.209557 -69.838867 -73.804630 101.117473 -5.995478 -3.102665 -2.938944 -5.656782 -2.056785 0.450845 3.979003 -5.154451 9.660912 66.019044 -61.392567 -104.121736 2.334534 -4.037724 7.410932 1.931204 -60.989202 10.879486 -175.059951 86.032289 -176.453629 -12.480205 -22.270744 12.377006 0.020503 -0.078500 -0.041768 3.251871 -59.921659 -3.082255 120.612218 77.648008 118.760445 -6.028696 -18.972744 -1.711956 0.020060 0.082882 0.014797
-18.304409 52.872622 9.292595 -177.767520 -17.441465 -2.240421 0.510794 16.342766 0.581825 0.043189 1.630576 0.055736 0.073620 2.736349 0.096424 0.448802 14.457651 0.555476 -0.206706 16.373256 0.061525 -0.226745 -8.579646 0.110229 -0.349298 -1.522387 2.731142 -0.763917 -7.876818 -5.212964 -69.845898 -73.803788 101.124410 -5.997400 -3.101478 -2.939028 -5.665416 -2.059216 0.456774 3.975887 -5.162206 9.652262 65.997940 -61.405104 -104.119343 2.322583 -4.049167 7.427565 1.930895 -60.989001 10.876080 -175.220536 86.033159 -176.621372 -12.264552 -22.293429 12.330741 0.023372 -0.073306 -0.043022 3.245858 -59.922318 -3.071151 120.619099 77.647447 118.774823 -6.034932 -18.976934 -1.720893 0.027300 0.083951 0.017848
-18.305676 52.872148 9.292107 -177.768966 -17.436616 -2.237656 0.510860 16.342141 0.579245 0.044132 1.628017 0.057021 0.073082 2.741906 0.095581 0.450457 14.458620 0.557714 -0.209363 16.383914 0.060247 -0.229079 -8.571095 0.109291 -0.349733 -1.520402 2.731902 -0.766337 -7.880855 -5.212185 -69.854924 -73.806587 101.141294 -6.018056 -3.110680 -2.930954 -5.668634 -2.062060 0.461334 3.970093 -5.167054 9.655304 65.987916 -61.409548 -104.113545 2.311678 -4.056781 7.433838 1.938773 -60.994290 10.869409 -175.200239 86.033117 -176.596087 -12.199940 -22.304889 12.312604 0.021812 -0.060856 -0.037696 3.255988 -59.927228 -3.081201 120.620455 77.647110 118.775048 -6.032406 -18.975005 -1.716017 0.024051 0.081725 0.015204
-18.307238 52.871897 9.291120 -177.769275 -17.434440 -2.232646 0.509374 16.341927 0.573892 0.043481 1.633903 0.056937 0.075106 2.743916 0.095599 0.452451 14.461157 0.559560 -0.212643 16.392911 0.058901 -0.231894 -8.561342 0.111804 -0.358766 -1.516679 2.741047 -0.763651 -7.879383 -5.210945 -69.877030 -73.818806 101.172853 -6.032423 -3.118232 -2.925050 -5.671500 -2.068685 0.468784 3.945611 -5.167500 9.663709 66.007167 -61.406018 -104.110160 2.306756 -4.063196 7.431004 1.954242 -61.000556 10.888636 -174.689129 86.034530 -176.042150 -12.438684 -22.288416 12.342012 0.008486 -0.037382 -0.021409 3.272029 -59.927707 -3.094451 120.623285 77.650952 118.781024 -6.037562 -18.973329 -1.713962 0.027886 0.080459 0.014567
-18.308380 52.871922 9.289553 -177.772597 -17.435964 -2.228600 0.511832 16.352436 0.569893 0.047577 1.641819 0.056285 0.074558 2.736485 0.096449 0.453040 14.462208 0.561012 -0.215181 16.403912 0.057739 -0.240157 -8.521768 0.109970 -0.361016 -1.519979 2.743699 -0.768067 -7.880919 -5.208147 -69.864364 -73.817442 101.169757 -6.030122 -3.124739 -2.929398 -5.672997 -2.075199 0.478232 3.936092 -5.169626 9.663173 66.003222 -61.413652 -104.106970 2.302698 -4.070497 7.433841 1.963043 -61.002884 10.916915 -174.192176 86.036186 -175.508539 -12.697202 -22.266456 12.375804 -0.003314 -0.020237 -0.005651 3.282678 -59.924528 -3.102238 120.649565 77.654633 118.809904 -6.036126 -18.977736 -1.714039 0.029830 0.080820 0.013696
-18.308771 52.871944 9.288284 -177.772404 -17.435896 -2.229520 0.515521 16.358369 0.571380 0.046173 1.639323 0.055992 0.076955 2.741368 0.095569 0.450747 14.457447 0.562896 -0.214816 16.420471 0.056805 -0.244063 -8.527146 0.111333 -0.363557 -1.517560 2.744443 -0.768095 -7.885001 -5.206557 -69.845912 -73.797231 101.141780 -6.013303 -3.125681 -2.918923 -5.674189 -2.077795 0.485410 3.929653 -5.169758 9.665209 65.998618 -61.429984 -104.098679 2.294477 -4.071578 7.420137 1.962703 -61.002627 10.912496 -174.322845 86.035587 -175.645432 -12.678335 -22.266367 12.371523 -0.001283 -0.023232 -0.001711 3.289099 -59.923122 -3.106860 120.653644 77.658656 118.818293 -6.034714 -18.978539 -1.713707 0.025942 0.083021 0.013195
-18.307735 52.871899 9.287449 -177.772350 -17.433934 -2.238588 0.522876 16.366745 0.577434 0.043946 1.632212 0.059449 0.077797 2.745545 0.095396 0.458232 14.462010 0.564959 -0.222120 16.426703 0.059745 -0.247609 -8.530803 0.110470 -0.377220 -1.525874 2.746040 -0.768039 -7.884278 -5.196853 -69.832890 -73.800355 101.130357 -6.022947 -3.122956 -2.917930 -5.684413 -2.089844 0.490909 3.922711 -5.172534 9.671872 65.983974 -61.449484 -104.085770 2.290447 -4.080759 7.415009 1.948472 -61.002000 10.902796 -174.573607 86.034120 -175.923579 -12.499740 -22.276267 12.345762 0.007521 -0.034790 -0.002768 3.279387 -59.927531 -3.094070 120.668039 77.660287 118.836324 -6.029762 -18.977910 -1.714299 0.023793 0.082034 0.012390
-18.307137 52.871852 9.286653 -177.778149 -17.433561 -2.243267 0.529756 16.370189 0.583493 0.045466 1.637515 0.058140 0.077828 2.739759 0.096736 0.467094 14.469385 0.565129 -0.228761 16.432868 0.066473 -0.255885 -8.498345 0.117347 -0.390347 -1.533813 2.748512 -0.769952 -7.882182 -5.184896 -69.770489 -73.800374 101.079286 -6.023179 -3.128092 -2.924505 -5.694099 -2.098038 0.507091 3.919811 -5.176726 9.663741 65.963947 -61.473131 -104.069649 2.244468 -4.073999 7.411448 1.943055 -61.001902 10.905368 -174.652621 86.034345 -176.014100 -12.456866 -22.272682 12.340869 0.010488 -0.037853 0.001095 3.274039 -59.927860 -3.076223 120.687820 77.666094 118.854844 -6.030459 -18.978868 -1.713137 0.024654 0.083089 0.013026
-18.307036 52.871846 9.285658 -177.782232 -17.436361 -2.245623 0.532929 16.375568 0.588411 0.045657 1.640146 0.058308 0.079682 2.737878 0.094887 0.469291 14.486363 0.575833 -0.232339 16.424878 0.060394 -0.256300 -8.498899 0.115964 -0.395365 -1.550971 2.739915 -0.767778 -7.881460 -5.175617 -69.749903 -73.808741 101.060981 -6.030216 -3.121520 -2.922955 -5.693293 -2.120843 0.511879 3.912928 -5.176685 9.654984 65.940813 -61.498150 -104.048642 2.222600 -4.075251 7.412470 1.941169 -60.999961 10.912978 -174.571409 86.036326 -175.930783 -12.519128 -22.259763 12.354307 0.009015 -0.035761 0.006331 3.271580 -59.925696 -3.067452 120.699765 77.667609 118.866014 -6.027619 -18.976712 -1.715098 0.022804 0.082067 0.014025
-18.307775 52.871698 9.284979 -177.784862 -17.439367 -2.243395 0.533708 16.380575 0.588652 0.045993 1.639809 0.057687 0.077296 2.747028 0.099717 0.471680 14.485703 0.574383 -0.233874 16.418773 0.056746 -0.255018 -8.491507 0.117226 -0.397031 -1.558673 2.736005 -0.762249 -7.879523 -5.171925 -69.596047 -73.794996 100.910285 -6.012401 -3.148311 -2.915684 -5.689106 -2.128006 0.519895 3.899801 -5.183804 9.656472 65.935665 -61.568251 -104.040559 2.243859 -4.082795 7.410314 1.940697 -60.999177 10.925168 -174.271898 86.034300 -175.628168 -12.647697 -22.237633 12.385038 0.006132 -0.032812 0.012061 3.270528 -59.922537 -3.063429 120.707610 77.669476 118.870696 -6.027842 -18.976393 -1.715321 0.023640 0.081951 0.014266
-18.308498 52.871290 9.285091 -177.784102 -17.439389 -2.242062 0.531947 16.382706 0.587495 0.046186 1.639560 0.058624 0.077191 2.750942 0.099117 0.471908 14.491119 0.575113 -0.230318 16.423912 0.061624 -0.255215 -8.485582 0.116485 -0.396859 -1.569008 2.734402 -0.756312 -7.878210 -5.172474 -69.526163 -73.789677 100.840197 -6.015872 -3.117175 -2.906205 -5.687424 -2.132034 0.537439 3.895667 -5.191080 9.642984 65.943287 -61.614908 -104.043884 2.226284 -4.072737 7.403561 1.940229 -61.001911 10.943121 -173.946416 86.035726 -175.285961 -12.875412 -22.208226 12.430037 -0.000847 -0.024765 0.018940 3.271949 -59.926418 -3.064721 120.723937 77.671659 118.887905 -6.026839 -18.967405 -1.718980 0.025354 0.079059 0.014988
-18.308216 52.870979 9.284956 -177.786928 -17.442825 -2.245580 0.536113 16.388801 0.592056 0.045761 1.639616 0.059043 0.077777 2.755954 0.099009 0.471020 14.493264 0.574909 -0.224674 16.450801 0.066671 -0.250743 -8.473816 0.119962 -0.402341 -1.577516 2.732805 -0.731301 -7.877661 -5.168947 -69.462627 -73.791519 100.763956 -6.008674 -3.115769 -2.904720 -5.693986 -2.138920 0.549247 3.881519 -5.200773 9.647275 65.962022 -61.656544 -104.038974 2.206780 -4.061906 7.401195 1.932017 -60.997529 10.939118 -174.139050 86.036101 -175.499902 -12.849625 -22.200339 12.441288 0.004505 -0.032097 0.015088 3.261093 -59.923815 -3.047187 120.735794 77.671656 118.897723 -6.030970 -18.966339 -1.721746 0.026772 0.078550 0.016621
